<?xml version="1.0" encoding="iso-8859-1"?>
<!-- Generator: Adobe Illustrator 19.0.0, SVG Export Plug-In . SVG Version: 6.00 Build 0)  -->
<svg version="1.1" id="Capa_1" xmlns="http://www.w3.org/2000/svg" xmlns:xlink="http://www.w3.org/1999/xlink" x="0px" y="0px"
	 viewBox="0 0 512 512" style="enable-background:new 0 0 512 512;" xml:space="preserve">
<g>
	<g>
		<g>
			<path d="M384.02,128.49c0.233-10.64-6.159-20.309-16.04-24.263c-9.881-3.954-21.178-1.364-28.35,6.5l-58.385-30.411
				c0.2-1.162,0.319-2.336,0.355-3.515c0-14.138-11.462-25.6-25.6-25.6s-25.6,11.461-25.6,25.6c0.036,1.178,0.155,2.353,0.355,3.515
				l-58.385,30.411c-7.173-7.851-18.463-10.432-28.335-6.478s-16.259,13.615-16.029,24.247c0.23,10.632,7.027,20.008,17.061,23.532
				v62.879c-10.199,3.592-17.033,13.215-17.067,24.028c-0.017,10.416,6.289,19.8,15.94,23.721c9.65,3.92,20.714,1.592,27.966-5.885
				l58.915,37.727c-1.866,10.1,2.485,20.338,11.051,26.005c8.566,5.667,19.689,5.667,28.255,0
				c8.566-5.667,12.916-15.905,11.051-26.005l58.915-37.727c7.338,7.583,18.584,9.875,28.304,5.767
				c9.72-4.108,15.914-13.769,15.59-24.317c-0.324-10.548-7.1-19.81-17.055-23.313v-62.878
				C376.978,148.51,383.787,139.13,384.02,128.49z M256,68.267c4.713,0,8.533,3.82,8.533,8.533s-3.82,8.533-8.533,8.533
				s-8.533-3.82-8.533-8.533C247.471,72.089,251.289,68.271,256,68.267z M179.047,126.488l59.554-31.021
				c9.758,9.244,25.04,9.244,34.798,0l59.554,31.021c-0.03,0.51-0.153,0.994-0.153,1.512c0.026,1.394,0.166,2.783,0.42,4.154
				l-60.648,36.229c-9.476-8.333-23.666-8.333-33.143,0l-60.648-36.229c0.254-1.371,0.394-2.76,0.419-4.154
				C179.2,127.482,179.078,126.998,179.047,126.488z M264.533,187.733c0,4.713-3.82,8.533-8.533,8.533s-8.533-3.82-8.533-8.533
				s3.82-8.533,8.533-8.533C260.711,179.205,264.529,183.022,264.533,187.733z M153.6,119.467c4.713,0,8.533,3.82,8.533,8.533
				s-3.821,8.533-8.533,8.533c-4.713,0-8.533-3.82-8.533-8.533C145.071,123.289,148.889,119.471,153.6,119.467z M153.6,247.467
				c-4.713,0-8.533-3.82-8.533-8.533s3.821-8.533,8.533-8.533c4.713,0,8.533,3.82,8.533,8.533
				C162.129,243.644,158.311,247.462,153.6,247.467z M239.138,279.556l-60.151-38.518c0.059-0.706,0.212-1.384,0.212-2.104
				c-0.033-10.813-6.868-20.435-17.067-24.028v-62.878c3.079-1.097,5.918-2.776,8.363-4.946l60.368,36.062
				c-2.409,12.35,4.686,24.578,16.603,28.617v62.879C244.402,275.731,241.575,277.4,239.138,279.556z M256,307.2
				c-4.713,0-8.533-3.82-8.533-8.533s3.82-8.533,8.533-8.533s8.533,3.82,8.533,8.533C264.529,303.378,260.711,307.195,256,307.2z
				 M349.866,214.905c-10.199,3.593-17.033,13.215-17.066,24.028c0,0.72,0.154,1.398,0.213,2.104l-60.151,38.518
				c-2.437-2.156-5.264-3.825-8.329-4.917v-62.878c11.917-4.039,19.012-16.267,16.603-28.618l60.368-36.062
				c2.444,2.17,5.284,3.849,8.363,4.945V214.905z M358.4,247.467c-4.713,0-8.533-3.82-8.533-8.533s3.82-8.533,8.533-8.533
				s8.533,3.82,8.533,8.533C366.929,243.644,363.111,247.462,358.4,247.467z M358.4,136.533c-4.713,0-8.533-3.82-8.533-8.533
				c0.005-4.711,3.822-8.529,8.533-8.533c4.713,0,8.533,3.82,8.533,8.533S363.113,136.533,358.4,136.533z"/>
			<path d="M469.333,0H42.667C19.114,0.028,0.028,19.114,0,42.667v358.4c0.028,23.553,19.114,42.639,42.667,42.667H179.2V460.8
				h-59.733c-2.263-0.001-4.434,0.898-6.035,2.499c-1.6,1.6-2.499,3.771-2.499,6.035v34.133c-0.001,2.263,0.898,4.434,2.499,6.035
				c1.6,1.6,3.771,2.499,6.035,2.499h273.067c2.263,0.001,4.434-0.898,6.035-2.499c1.6-1.6,2.499-3.771,2.499-6.035v-34.133
				c0.001-2.263-0.898-4.434-2.499-6.035c-1.6-1.6-3.771-2.499-6.035-2.499H332.8v-17.067h136.533
				c23.553-0.028,42.639-19.114,42.667-42.667v-358.4C511.972,19.114,492.886,0.028,469.333,0z M384,477.867v17.067H128v-17.067H384
				z M196.267,460.8v-17.067h119.467V460.8H196.267z M494.933,401.067c-0.015,14.132-11.468,25.585-25.6,25.6H42.667
				c-14.132-0.015-25.585-11.468-25.6-25.6v-25.6h477.867V401.067z M494.933,358.4H17.067V42.667
				c0.015-14.132,11.468-25.585,25.6-25.6h426.667c14.132,0.015,25.585,11.468,25.6,25.6V358.4z"/>
		</g>
	</g>
</g>
<g>
</g>
<g>
</g>
<g>
</g>
<g>
</g>
<g>
</g>
<g>
</g>
<g>
</g>
<g>
</g>
<g>
</g>
<g>
</g>
<g>
</g>
<g>
</g>
<g>
</g>
<g>
</g>
<g>
</g>
</svg>
