<?xml version="1.0" encoding="iso-8859-1"?>
<!-- Generator: Adobe Illustrator 19.0.0, SVG Export Plug-In . SVG Version: 6.00 Build 0)  -->
<svg version="1.1" id="Capa_1" xmlns="http://www.w3.org/2000/svg" xmlns:xlink="http://www.w3.org/1999/xlink" x="0px" y="0px"
	 viewBox="0 0 512 512" style="enable-background:new 0 0 512 512;" xml:space="preserve">
<g>
	<g>
		<path d="M477,0H35C15.701,0,0,15.701,0,35v382c0,19.299,15.701,35,35,35h7v35c0,13.785,11.215,25,25,25h60
			c13.785,0,25-11.215,25-25v-35h208v35c0,13.785,11.215,25,25,25h60c13.785,0,25-11.215,25-25v-35h7c19.299,0,35-15.701,35-35V35
			C512,15.701,496.299,0,477,0z M122,482H72v-30h50V482z M440,482h-50v-30h50V482z M482,417c0,2.757-2.243,5-5,5H35
			c-2.757,0-5-2.243-5-5V35c0-2.757,2.243-5,5-5h442c2.757,0,5,2.243,5,5V417z"/>
	</g>
</g>
<g>
	<g>
		<path d="M413.213,60H98.787L60,98.787v254.427L98.787,392h314.426L452,353.213V98.787L413.213,60z M90,180h107.213
			c-17.14,46.101-57.736,80.891-107.213,89.78V180z M301,362h-90v-30h90V362z M422,340.787L400.787,362H331v-30h21v-30H160v30h21v30
			h-69.787L90,340.787v-40.619c55.08-8.104,101.695-42.562,126.593-90.115C222.904,216.201,231.514,220,241,220v25h30v-25
			c19.299,0,35-15.701,35-35v-5h116V340.787z M236,185v-35h40v35c0,2.757-2.243,5-5,5h-30C238.243,190,236,187.757,236,185z
			 M422,150H306v-30H206v30H90v-38.787L111.213,90h289.574L422,111.213V150z"/>
	</g>
</g>
<g>
</g>
<g>
</g>
<g>
</g>
<g>
</g>
<g>
</g>
<g>
</g>
<g>
</g>
<g>
</g>
<g>
</g>
<g>
</g>
<g>
</g>
<g>
</g>
<g>
</g>
<g>
</g>
<g>
</g>
</svg>
