<?xml version="1.0"?>
<svg xmlns="http://www.w3.org/2000/svg" id="Layer_1" data-name="Layer 1" viewBox="0 0 512 512" width="512" height="512"><title>Discussion</title><path d="M316.1,68.938h11.25a6,6,0,0,0,0-12H316.1a36.052,36.052,0,0,0-33.3,22.344h-7.8a6,6,0,0,0,0,12h5.148c-.025.549-.042,1.1-.042,1.656a36.184,36.184,0,0,0,.434,5.582h-5.54a6,6,0,0,0,0,12H284.7a36.021,36.021,0,0,0,31.4,18.418h11.25a6,6,0,1,0,0-12H316.1a23.908,23.908,0,0,1-16.313-6.418h19.63a6,6,0,0,0,0-12H292.759a23.958,23.958,0,0,1-.662-5.582c0-.557.026-1.108.063-1.656h27.254a6,6,0,0,0,0-12H296.376A23.987,23.987,0,0,1,316.1,68.938Z"/><path d="M468.24,322.6A56.64,56.64,0,1,0,411.6,379.238,56.7,56.7,0,0,0,468.24,322.6Zm-101.279,0a44.64,44.64,0,1,1,44.64,44.639A44.691,44.691,0,0,1,366.961,322.6Z"/><path d="M411.6,401a90.5,90.5,0,0,0-90.4,90.4,6,6,0,0,0,6,6H496a6,6,0,0,0,6-6A90.5,90.5,0,0,0,411.6,401Zm-78.172,84.4a78.4,78.4,0,0,1,156.344,0Z"/><path d="M157.039,71.243a56.64,56.64,0,1,0-56.64,56.64A56.7,56.7,0,0,0,157.039,71.243Zm-101.279,0a44.64,44.64,0,1,1,44.639,44.64A44.69,44.69,0,0,1,55.76,71.243Z"/><path d="M10,240.041a6,6,0,0,0,6,6H184.8a6,6,0,0,0,6-6,90.4,90.4,0,0,0-180.8,0Zm90.4-78.4a78.5,78.5,0,0,1,78.172,72.4H22.227A78.5,78.5,0,0,1,100.4,161.642Z"/><path d="M325.931,410.307a6.339,6.339,0,0,0-4.832-5.18,41.4,41.4,0,0,0-6.8-.964c-15.276-1.428-28.987-4.218-28.987-22.428V316.807a27.975,27.975,0,0,0-27.943-27.944H37.944A27.975,27.975,0,0,0,10,316.807V452.459A27.975,27.975,0,0,0,37.944,480.4H257.371a27.974,27.974,0,0,0,27.943-27.943V443.53a1.593,1.593,0,0,1,1.162-1.608c28.315-5,37.127-23.566,38.82-27.906A6.082,6.082,0,0,0,325.931,410.307Zm-41.542,19.8a13.523,13.523,0,0,0-11.075,13.425v8.929A15.961,15.961,0,0,1,257.371,468.4H37.944A15.961,15.961,0,0,1,22,452.459V316.807a15.962,15.962,0,0,1,15.944-15.944H257.371a15.962,15.962,0,0,1,15.943,15.944v64.928c0,28.513,24.181,32.76,37.158,34.112C306.5,420.924,298.734,427.57,284.389,430.105Z"/><path d="M230.831,397H218.1a6,6,0,1,0,0,12h12.727a6,6,0,0,0,0-12Z"/><path d="M194.8,409a6,6,0,0,0,0-12H128.364a6,6,0,1,0,0,12Z"/><path d="M230.831,360.264H128.364a6,6,0,0,0,0,12H230.831a6,6,0,1,0,0-12Z"/><path d="M230.831,323.524H171.377a6,6,0,0,0,0,12h59.454a6,6,0,1,0,0-12Z"/><path d="M128.364,335.524H148a6,6,0,0,0,0-12H128.364a6,6,0,0,0,0,12Z"/><path d="M230.831,433.741H173.739a6,6,0,0,0,0,12h57.092a6,6,0,1,0,0-12Z"/><path d="M150.438,433.741H66.253a6,6,0,1,0,0,12h84.185a6,6,0,0,0,0-12Z"/><path d="M474.056,22.276H254.629A27.975,27.975,0,0,0,226.686,50.22v64.928c0,18.21-13.711,21-28.987,22.428a41.434,41.434,0,0,0-6.8.963,6.341,6.341,0,0,0-4.835,5.181,6.082,6.082,0,0,0,.635,3.709c1.693,4.341,10.5,22.9,38.82,27.906a1.593,1.593,0,0,1,1.162,1.608v8.929a27.974,27.974,0,0,0,27.943,27.943H474.056A27.975,27.975,0,0,0,502,185.872V50.22A27.976,27.976,0,0,0,474.056,22.276ZM490,185.872a15.961,15.961,0,0,1-15.944,15.943H254.629a15.961,15.961,0,0,1-15.943-15.943v-8.929a13.521,13.521,0,0,0-11.074-13.424c-14.357-2.538-22.122-9.192-26.089-14.258,12.976-1.351,37.163-5.6,37.163-34.113V50.22a15.962,15.962,0,0,1,15.943-15.944H474.056A15.962,15.962,0,0,1,490,50.22Z"/><path d="M445.747,93.677H351.011a6,6,0,0,0,0,12h94.736a6,6,0,0,0,0-12Z"/><path d="M406.86,142.416a6,6,0,0,0,0-12H351.011a6,6,0,0,0,0,12Z"/><path d="M445.747,130.416H431.6a6,6,0,0,0,0,12h14.146a6,6,0,0,0,0-12Z"/><path d="M322.86,167.154H281.169a6,6,0,0,0,0,12H322.86a6,6,0,0,0,0-12Z"/><path d="M445.747,167.154H346.86a6,6,0,0,0,0,12h98.887a6,6,0,1,0,0-12Z"/><path d="M351.011,68.938h11.121a6,6,0,0,0,0-12H351.011a6,6,0,0,0,0,12Z"/><path d="M445.747,56.938H385.819a6,6,0,0,0,0,12h59.928a6,6,0,0,0,0-12Z"/><path d="M96.732,405.524h11.25a6,6,0,0,0,0-12H96.732a23.9,23.9,0,0,1-16.313-6.418h19.63a6,6,0,0,0,0-12H73.394a23.945,23.945,0,0,1-.662-5.582c0-.556.026-1.107.063-1.655h27.254a6,6,0,0,0,0-12H77.011a23.988,23.988,0,0,1,19.721-10.345h11.25a6,6,0,0,0,0-12H96.732a36.051,36.051,0,0,0-33.3,22.345h-7.8a6,6,0,1,0,0,12h5.148c-.025.549-.042,1.1-.042,1.655a36.04,36.04,0,0,0,.435,5.582H55.626a6,6,0,1,0,0,12h9.708A36.019,36.019,0,0,0,96.732,405.524Z"/></svg>
