<svg xmlns="http://www.w3.org/2000/svg" xmlns:xlink="http://www.w3.org/1999/xlink" version="1.1" id="imgsvg7" x="0px" y="0px" width="60px" height="60px" viewBox="0 0 60 60" enable-background="new 0 0 60 60" xml:space="preserve" class="svg replaced-svg">
<g>
	<g>
		<path id="SVGID_19_" fill="#5bd7fa" d="M46.916,31.239h-1.348v-1.334h1.348c0.333,0,0.616-0.243,0.665-0.57    c0.05-0.327-0.151-0.64-0.472-0.734l-12.981-3.859v-6.609l8.203,2.438h-6.856c-0.371,0-0.672,0.299-0.672,0.667    c0,0.367,0.301,0.666,0.672,0.666h8.75v1.334h-1.347c-0.372,0-0.673,0.299-0.673,0.666c0,0.369,0.301,0.668,0.673,0.668h4.038    c0.372,0,0.673-0.299,0.673-0.668c0-0.367-0.301-0.666-0.673-0.666h-1.348v-1.334h1.348c0.333,0,0.616-0.243,0.665-0.57    c0.05-0.327-0.151-0.64-0.472-0.734l-13.178-3.92l-3.18-6.406c-0.113-0.227-0.346-0.372-0.602-0.372h-0.005    c-0.252,0-0.483,0.14-0.599,0.364l-3.422,6.668c-0.003,0.008-0.002,0.016-0.005,0.022c-0.021,0.041-0.025,0.084-0.038,0.127    c-0.009,0.043-0.025,0.086-0.025,0.129c0,0.009-0.004,0.016-0.004,0.023v3.335h-8.114l6.958-2.028    c0.356-0.103,0.561-0.474,0.456-0.827c-0.104-0.353-0.478-0.557-0.836-0.453l-11.441,3.334c-0.321,0.094-0.525,0.406-0.477,0.735    c0.048,0.329,0.332,0.571,0.667,0.571h1.347v1.334h-1.347c-0.372,0-0.673,0.299-0.673,0.666c0,0.369,0.301,0.668,0.673,0.668    h4.038c0.372,0,0.673-0.299,0.673-0.668c0-0.367-0.301-0.666-0.673-0.666h-1.347v-1.334h10.096v6.669h-8.114l6.958-2.028    c0.356-0.104,0.561-0.475,0.456-0.827c-0.104-0.354-0.478-0.556-0.836-0.453l-11.441,3.334c-0.321,0.094-0.525,0.407-0.477,0.735    c0.048,0.329,0.332,0.572,0.667,0.572h1.347v1.334h-1.347c-0.372,0-0.673,0.299-0.673,0.666s0.301,0.666,0.673,0.666h4.038    c0.372,0,0.673-0.299,0.673-0.666s-0.301-0.666-0.673-0.666h-1.347v-1.334h9.876l-5,17.337h-2.184    c-0.372,0-0.672,0.299-0.672,0.666v1.334c0,0.366,0.3,0.668,0.672,0.668s0.674-0.302,0.674-0.668v-0.666h2.018h0.001h17.496h0.001    h2.02v0.666c0,0.366,0.302,0.668,0.675,0.668c0.372,0,0.673-0.302,0.673-0.668v-1.334c0-0.367-0.301-0.666-0.673-0.666h-2.185    l-5.221-18.097v-3.013l8.203,2.439h-6.855c-0.373,0-0.673,0.297-0.673,0.667c0,0.367,0.3,0.667,0.673,0.667h8.75v1.334h-1.348    c-0.372,0-0.673,0.299-0.673,0.666s0.301,0.666,0.673,0.666h4.038c0.372,0,0.673-0.299,0.673-0.666    C47.589,31.538,47.288,31.239,46.916,31.239L46.916,31.239z M22.234,47.242l2.198-7.626l4.404,2.776l-4.694,2.959    c-0.313,0.198-0.406,0.609-0.207,0.922c0.129,0.199,0.347,0.309,0.57,0.309c0.123,0,0.248-0.033,0.359-0.104l5.225-3.295    l6.438,4.06L22.234,47.242L22.234,47.242L22.234,47.242z M37.706,46.402l-12.888-8.125l1.534-5.314l2.518,1.648l-2.515,1.646    c-0.311,0.202-0.397,0.616-0.191,0.923c0.129,0.195,0.344,0.299,0.562,0.299c0.128,0,0.257-0.035,0.371-0.109l2.994-1.958    l4.82,3.151l-3.177,2.004c-0.313,0.197-0.406,0.61-0.205,0.92c0.128,0.199,0.346,0.311,0.568,0.311    c0.123,0,0.248-0.033,0.36-0.104l3.289-2.075L37.706,46.402L37.706,46.402z M35,37.023l-4.535-2.967    c-0.002-0.002-0.002-0.002-0.003-0.004l-3.722-2.435l0.494-1.714h4.204c0.371,0,0.672-0.299,0.672-0.667    c0-0.369-0.301-0.667-0.672-0.667h-4.039v-2.668h4.039c0.371,0,0.672-0.299,0.672-0.666c0-0.369-0.301-0.667-0.672-0.667h-4.039    v-2.668h4.039c0.371,0,0.672-0.299,0.672-0.666c0-0.368-0.301-0.667-0.672-0.667h-4.039V17.9h3.365    c0.373,0,0.674-0.299,0.674-0.667c0-0.367-0.301-0.666-0.674-0.666h-2.939l2.313-4.512l2.646,5.334v11.847    c0,0.062,0.008,0.123,0.025,0.184l0.633,2.197l-1.68,1.099c-0.311,0.203-0.396,0.617-0.189,0.925    c0.129,0.193,0.344,0.299,0.562,0.299c0.128,0,0.257-0.035,0.371-0.109l1.324-0.868L35,37.023L35,37.023z"></path>
	</g>
</g>
</svg>