<svg xmlns="http://www.w3.org/2000/svg" xmlns:xlink="http://www.w3.org/1999/xlink" version="1.1" id="imgsvg8" x="0px" y="0px" width="60px" height="60px" viewBox="0 0 60 60" enable-background="new 0 0 60 60" xml:space="preserve" class="svg replaced-svg">

		<defs>
			<path id="SVGID_21_" d="M54.529,12.12c-0.198,0.798-0.595,1.53-0.992,2.128c-0.527,0.799-1.122,1.53-2.047,2.329     c-1.123,0.931-2.18,1.862-3.302,2.794l-1.388,1.197c-0.331,0.266-0.462,0.532-0.396,0.998c0.132,0.931,0.265,1.929,0.396,2.86     l1.585,11.642c0.065,0.532,0.133,1.265-0.067,2.063c-0.263,0.998-0.925,1.73-1.979,2.263c-0.133,0.134-0.332,0.199-0.529,0.266     c-0.265,0.134-0.528,0.199-0.793,0.199c-0.66,0-1.189-0.398-1.52-1.13c-0.197-0.4-0.33-0.865-0.527-1.331l-3.039-7.85     c-0.265-0.798-0.66-1.53-1.123-2.262l-0.199-0.333l-0.857,0.665c-1.717,1.398-3.501,2.727-5.285,4.125     c0.132,0.532,0.265,1.064,0.396,1.596l0.133,0.6c0.263,0.799,0.197,1.53-0.067,2.195c-0.263,0.798-0.857,1.331-1.649,1.597     c-0.662,0.199-1.19-0.134-1.455-0.266c-0.265-0.135-0.462-0.334-0.66-0.6c-1.52-1.862-3.039-3.791-4.491-5.722l-1.256-1.596     c-0.131-0.134-0.263-0.266-0.396-0.466c-0.529-0.666-0.462-1.397,0.132-1.995c0.33-0.333,0.66-0.667,0.99-0.933     c0.595-0.533,1.387-0.598,2.114-0.267c0.595,0.267,1.123,0.6,1.717,0.866l0.727,0.333c0.065,0,0.132,0.065,0.198,0.065     c0.462-0.466,0.925-0.864,1.387-1.33l4.294-4.125c-0.133-0.199-0.265-0.332-0.396-0.532c-0.595-0.732-1.389-1.264-2.247-1.862     c-2.246-1.598-4.558-3.126-6.803-4.724c-0.199-0.134-0.462-0.333-0.727-0.599c-0.66-0.598-0.792-1.396-0.33-2.128     c0.396-0.731,0.99-1.398,1.717-1.929c0.395-0.333,1.057-0.6,1.981-0.333c0.462,0.132,0.858,0.266,1.255,0.398l12.352,4.658     c0.265,0.065,0.529,0.132,0.728,0.199c0.396,0.067,0.66-0.067,0.991-0.333c0.33-0.333,0.66-0.598,0.99-0.931     c0.528-0.465,1.058-0.931,1.585-1.396c1.124-0.932,2.114-1.731,2.974-2.396c0.99-0.732,2.047-1.197,3.302-1.396     c0.728-0.067,1.322,0.065,1.85,0.398C54.529,10.323,54.859,11.254,54.529,12.12L54.529,12.12z M53.01,10.988     c-0.265-0.132-0.528-0.199-0.859-0.132c-0.99,0.132-1.915,0.532-2.708,1.13c-0.859,0.666-1.783,1.463-2.906,2.396     c-0.529,0.466-1.057,0.931-1.585,1.396c-0.331,0.333-0.661,0.598-0.991,0.931c-0.595,0.532-1.322,0.732-2.048,0.599     c-0.265-0.067-0.595-0.132-0.925-0.266l-12.353-4.656c-0.33-0.134-0.726-0.266-1.188-0.4c-0.462-0.133-0.662-0.065-0.792,0.066     c-0.595,0.466-1.124,0.998-1.454,1.598c-0.132,0.132-0.132,0.199,0.065,0.398c0.199,0.199,0.396,0.333,0.594,0.465     c2.247,1.598,4.558,3.193,6.805,4.724c0.925,0.599,1.782,1.264,2.51,2.129c0.197,0.2,0.33,0.466,0.527,0.73     c0.067,0.134,0.133,0.201,0.199,0.333l0.33,0.466l-0.529,0.532l-4.557,4.325c-0.529,0.533-1.058,0.998-1.586,1.53     c-0.33,0.266-0.726,0.332-1.056,0.132c-0.132-0.065-0.265-0.132-0.397-0.199l-0.727-0.333c-0.595-0.332-1.123-0.598-1.717-0.864     c-0.264-0.134-0.527-0.134-0.727,0.067c-0.263,0.199-0.595,0.531-0.858,0.797c-0.067,0.067-0.132,0.134-0.132,0.134     s0,0.067,0.065,0.132c0.132,0.201,0.199,0.333,0.33,0.465l1.256,1.598c1.452,1.929,2.906,3.792,4.424,5.721     c0.066,0.133,0.199,0.267,0.331,0.334c0.198,0.132,0.33,0.132,0.33,0.132c0.463-0.132,0.726-0.398,0.926-0.799     c0.197-0.398,0.197-0.863,0.064-1.396l-0.132-0.599c-0.133-0.599-0.33-1.197-0.463-1.797c-0.065-0.265-0.132-0.665,0.33-0.998     c1.784-1.396,3.634-2.86,5.483-4.256l2.047-1.53l0.595,0.864l0.397,0.667c0.462,0.799,0.925,1.596,1.255,2.461l2.906,7.85     c0.198,0.465,0.33,0.931,0.528,1.331c0.132,0.331,0.265,0.398,0.661,0.266c0.198-0.066,0.33-0.134,0.463-0.199     c0.66-0.333,1.057-0.798,1.255-1.397c0.132-0.398,0.132-0.864,0.064-1.53l-1.584-11.642c-0.133-0.998-0.265-1.929-0.397-2.86     c-0.131-0.933,0.199-1.729,0.925-2.262l1.322-1.132c1.122-0.931,2.246-1.862,3.303-2.793c0.793-0.666,1.388-1.331,1.783-1.996     c0.33-0.533,0.66-1.132,0.859-1.797C53.406,11.454,53.274,11.055,53.01,10.988L53.01,10.988z M24.078,35.869L7.695,48.443     c-0.132,0.067-0.265,0.133-0.396,0.133c-0.199,0-0.397-0.065-0.529-0.267c-0.198-0.266-0.132-0.731,0.132-0.931l16.382-12.573     c0.263-0.2,0.726-0.134,0.925,0.133C24.408,35.271,24.408,35.67,24.078,35.869L24.078,35.869z M26.257,38.997l-10.04,7.716     c-0.132,0.066-0.265,0.134-0.397,0.134c-0.198,0-0.397-0.067-0.528-0.267c-0.199-0.267-0.132-0.731,0.131-0.931l9.975-7.718     c0.33-0.199,0.727-0.132,0.992,0.133C26.587,38.33,26.521,38.796,26.257,38.997L26.257,38.997z M14.499,47.977l-1.65,1.264     c-0.132,0.067-0.265,0.135-0.397,0.135c-0.198,0-0.397-0.067-0.528-0.267c-0.199-0.267-0.132-0.731,0.131-0.931l1.652-1.265     c0.265-0.2,0.727-0.134,0.925,0.133C14.83,47.312,14.763,47.777,14.499,47.977L14.499,47.977z M12.319,40.527l-1.652,1.264     c-0.131,0.065-0.263,0.133-0.396,0.133c-0.197,0-0.397-0.067-0.529-0.267c-0.198-0.266-0.131-0.731,0.132-0.931l1.652-1.265     c0.265-0.199,0.727-0.134,0.925,0.133S12.583,40.326,12.319,40.527L12.319,40.527z M21.898,33.275l-7.862,5.987     c-0.131,0.065-0.263,0.133-0.396,0.133c-0.198,0-0.397-0.133-0.529-0.267c-0.198-0.266-0.131-0.731,0.132-0.931l7.86-5.987     c0.265-0.199,0.727-0.133,0.925,0.132C22.228,32.609,22.161,33.074,21.898,33.275L21.898,33.275z"></path>
		</defs>
		<use xlink:href="#SVGID_21_" overflow="visible" fill="#5bd7fa"></use>
		<clipPath id="SVGID_22_">
			<use xlink:href="#SVGID_21_" overflow="visible"></use>
		</clipPath>
</svg>